<mxfile host="app.diagrams.net" modified="2021-01-12T16:11:14.273Z" agent="5.0 (Windows)" etag="OgjNm9h4fy2YqkihzxMj" version="14.1.8" type="github">
  <diagram id="_nex9tJsqX65JZPnK0P_" name="Page-1">
    <mxGraphModel dx="2062" dy="1152" grid="1" gridSize="10" guides="1" tooltips="1" connect="1" arrows="1" fold="1" page="1" pageScale="1" pageWidth="850" pageHeight="1100" math="0" shadow="0">
      <root>
        <mxCell id="0" />
        <mxCell id="1" parent="0" />
        <mxCell id="NMXMBQw7t5BSDtQ0k6Hd-2" value="Topping" style="swimlane;fontStyle=0;childLayout=stackLayout;horizontal=1;startSize=26;horizontalStack=0;resizeParent=1;resizeParentMax=0;resizeLast=0;collapsible=1;marginBottom=0;align=center;fontSize=14;" vertex="1" parent="1">
          <mxGeometry x="600" y="120" width="160" height="116" as="geometry" />
        </mxCell>
        <mxCell id="NMXMBQw7t5BSDtQ0k6Hd-3" value="TID" style="text;strokeColor=none;fillColor=none;spacingLeft=4;spacingRight=4;overflow=hidden;rotatable=0;points=[[0,0.5],[1,0.5]];portConstraint=eastwest;fontSize=12;" vertex="1" parent="NMXMBQw7t5BSDtQ0k6Hd-2">
          <mxGeometry y="26" width="160" height="30" as="geometry" />
        </mxCell>
        <mxCell id="NMXMBQw7t5BSDtQ0k6Hd-4" value="title" style="text;strokeColor=none;fillColor=none;spacingLeft=4;spacingRight=4;overflow=hidden;rotatable=0;points=[[0,0.5],[1,0.5]];portConstraint=eastwest;fontSize=12;" vertex="1" parent="NMXMBQw7t5BSDtQ0k6Hd-2">
          <mxGeometry y="56" width="160" height="30" as="geometry" />
        </mxCell>
        <mxCell id="NMXMBQw7t5BSDtQ0k6Hd-10" value="nurishment" style="text;strokeColor=none;fillColor=none;spacingLeft=4;spacingRight=4;overflow=hidden;rotatable=0;points=[[0,0.5],[1,0.5]];portConstraint=eastwest;fontSize=12;" vertex="1" parent="NMXMBQw7t5BSDtQ0k6Hd-2">
          <mxGeometry y="86" width="160" height="30" as="geometry" />
        </mxCell>
        <mxCell id="NMXMBQw7t5BSDtQ0k6Hd-6" value="Pizza" style="swimlane;fontStyle=0;childLayout=stackLayout;horizontal=1;startSize=26;horizontalStack=0;resizeParent=1;resizeParentMax=0;resizeLast=0;collapsible=1;marginBottom=0;align=center;fontSize=14;" vertex="1" parent="1">
          <mxGeometry x="120" y="120" width="160" height="146" as="geometry" />
        </mxCell>
        <mxCell id="NMXMBQw7t5BSDtQ0k6Hd-7" value="PID" style="text;strokeColor=none;fillColor=none;spacingLeft=4;spacingRight=4;overflow=hidden;rotatable=0;points=[[0,0.5],[1,0.5]];portConstraint=eastwest;fontSize=12;" vertex="1" parent="NMXMBQw7t5BSDtQ0k6Hd-6">
          <mxGeometry y="26" width="160" height="30" as="geometry" />
        </mxCell>
        <mxCell id="NMXMBQw7t5BSDtQ0k6Hd-8" value="title" style="text;strokeColor=none;fillColor=none;spacingLeft=4;spacingRight=4;overflow=hidden;rotatable=0;points=[[0,0.5],[1,0.5]];portConstraint=eastwest;fontSize=12;" vertex="1" parent="NMXMBQw7t5BSDtQ0k6Hd-6">
          <mxGeometry y="56" width="160" height="30" as="geometry" />
        </mxCell>
        <mxCell id="NMXMBQw7t5BSDtQ0k6Hd-11" value="nurishment" style="text;strokeColor=none;fillColor=none;spacingLeft=4;spacingRight=4;overflow=hidden;rotatable=0;points=[[0,0.5],[1,0.5]];portConstraint=eastwest;fontSize=12;" vertex="1" parent="NMXMBQw7t5BSDtQ0k6Hd-6">
          <mxGeometry y="86" width="160" height="30" as="geometry" />
        </mxCell>
        <mxCell id="NMXMBQw7t5BSDtQ0k6Hd-12" value="price" style="text;strokeColor=none;fillColor=none;spacingLeft=4;spacingRight=4;overflow=hidden;rotatable=0;points=[[0,0.5],[1,0.5]];portConstraint=eastwest;fontSize=12;" vertex="1" parent="NMXMBQw7t5BSDtQ0k6Hd-6">
          <mxGeometry y="116" width="160" height="30" as="geometry" />
        </mxCell>
        <mxCell id="NMXMBQw7t5BSDtQ0k6Hd-13" value="ToppingOnPizza" style="swimlane;fontStyle=0;childLayout=stackLayout;horizontal=1;startSize=26;horizontalStack=0;resizeParent=1;resizeParentMax=0;resizeLast=0;collapsible=1;marginBottom=0;align=center;fontSize=14;" vertex="1" parent="1">
          <mxGeometry x="360" y="34" width="160" height="86" as="geometry" />
        </mxCell>
        <mxCell id="NMXMBQw7t5BSDtQ0k6Hd-14" value="PID" style="text;strokeColor=none;fillColor=none;spacingLeft=4;spacingRight=4;overflow=hidden;rotatable=0;points=[[0,0.5],[1,0.5]];portConstraint=eastwest;fontSize=12;" vertex="1" parent="NMXMBQw7t5BSDtQ0k6Hd-13">
          <mxGeometry y="26" width="160" height="30" as="geometry" />
        </mxCell>
        <mxCell id="NMXMBQw7t5BSDtQ0k6Hd-15" value="TID" style="text;strokeColor=none;fillColor=none;spacingLeft=4;spacingRight=4;overflow=hidden;rotatable=0;points=[[0,0.5],[1,0.5]];portConstraint=eastwest;fontSize=12;" vertex="1" parent="NMXMBQw7t5BSDtQ0k6Hd-13">
          <mxGeometry y="56" width="160" height="30" as="geometry" />
        </mxCell>
        <mxCell id="NMXMBQw7t5BSDtQ0k6Hd-17" value="sauce" style="swimlane;fontStyle=0;childLayout=stackLayout;horizontal=1;startSize=26;horizontalStack=0;resizeParent=1;resizeParentMax=0;resizeLast=0;collapsible=1;marginBottom=0;align=center;fontSize=14;" vertex="1" parent="1">
          <mxGeometry x="600" y="280" width="160" height="116" as="geometry" />
        </mxCell>
        <mxCell id="NMXMBQw7t5BSDtQ0k6Hd-20" value="SID" style="text;strokeColor=none;fillColor=none;spacingLeft=4;spacingRight=4;overflow=hidden;rotatable=0;points=[[0,0.5],[1,0.5]];portConstraint=eastwest;fontSize=12;" vertex="1" parent="NMXMBQw7t5BSDtQ0k6Hd-17">
          <mxGeometry y="26" width="160" height="30" as="geometry" />
        </mxCell>
        <mxCell id="NMXMBQw7t5BSDtQ0k6Hd-18" value="title" style="text;strokeColor=none;fillColor=none;spacingLeft=4;spacingRight=4;overflow=hidden;rotatable=0;points=[[0,0.5],[1,0.5]];portConstraint=eastwest;fontSize=12;" vertex="1" parent="NMXMBQw7t5BSDtQ0k6Hd-17">
          <mxGeometry y="56" width="160" height="30" as="geometry" />
        </mxCell>
        <mxCell id="NMXMBQw7t5BSDtQ0k6Hd-19" value="nurishment" style="text;strokeColor=none;fillColor=none;spacingLeft=4;spacingRight=4;overflow=hidden;rotatable=0;points=[[0,0.5],[1,0.5]];portConstraint=eastwest;fontSize=12;" vertex="1" parent="NMXMBQw7t5BSDtQ0k6Hd-17">
          <mxGeometry y="86" width="160" height="30" as="geometry" />
        </mxCell>
        <mxCell id="NMXMBQw7t5BSDtQ0k6Hd-21" value="SauceOnPizza" style="swimlane;fontStyle=0;childLayout=stackLayout;horizontal=1;startSize=26;horizontalStack=0;resizeParent=1;resizeParentMax=0;resizeLast=0;collapsible=1;marginBottom=0;align=center;fontSize=14;" vertex="1" parent="1">
          <mxGeometry x="360" y="396" width="160" height="86" as="geometry" />
        </mxCell>
        <mxCell id="NMXMBQw7t5BSDtQ0k6Hd-22" value="SID" style="text;strokeColor=none;fillColor=none;spacingLeft=4;spacingRight=4;overflow=hidden;rotatable=0;points=[[0,0.5],[1,0.5]];portConstraint=eastwest;fontSize=12;" vertex="1" parent="NMXMBQw7t5BSDtQ0k6Hd-21">
          <mxGeometry y="26" width="160" height="30" as="geometry" />
        </mxCell>
        <mxCell id="NMXMBQw7t5BSDtQ0k6Hd-23" value="PID" style="text;strokeColor=none;fillColor=none;spacingLeft=4;spacingRight=4;overflow=hidden;rotatable=0;points=[[0,0.5],[1,0.5]];portConstraint=eastwest;fontSize=12;" vertex="1" parent="NMXMBQw7t5BSDtQ0k6Hd-21">
          <mxGeometry y="56" width="160" height="30" as="geometry" />
        </mxCell>
        <mxCell id="NMXMBQw7t5BSDtQ0k6Hd-25" style="edgeStyle=orthogonalEdgeStyle;rounded=0;orthogonalLoop=1;jettySize=auto;html=1;" edge="1" parent="1" source="NMXMBQw7t5BSDtQ0k6Hd-20" target="NMXMBQw7t5BSDtQ0k6Hd-22">
          <mxGeometry relative="1" as="geometry" />
        </mxCell>
        <mxCell id="NMXMBQw7t5BSDtQ0k6Hd-26" style="edgeStyle=orthogonalEdgeStyle;rounded=0;orthogonalLoop=1;jettySize=auto;html=1;" edge="1" parent="1" source="NMXMBQw7t5BSDtQ0k6Hd-7" target="NMXMBQw7t5BSDtQ0k6Hd-23">
          <mxGeometry relative="1" as="geometry" />
        </mxCell>
        <mxCell id="NMXMBQw7t5BSDtQ0k6Hd-27" style="edgeStyle=orthogonalEdgeStyle;rounded=0;orthogonalLoop=1;jettySize=auto;html=1;entryX=0;entryY=0.5;entryDx=0;entryDy=0;" edge="1" parent="1" source="NMXMBQw7t5BSDtQ0k6Hd-7" target="NMXMBQw7t5BSDtQ0k6Hd-14">
          <mxGeometry relative="1" as="geometry" />
        </mxCell>
        <mxCell id="NMXMBQw7t5BSDtQ0k6Hd-28" style="edgeStyle=orthogonalEdgeStyle;rounded=0;orthogonalLoop=1;jettySize=auto;html=1;entryX=1;entryY=0.5;entryDx=0;entryDy=0;" edge="1" parent="1" source="NMXMBQw7t5BSDtQ0k6Hd-3" target="NMXMBQw7t5BSDtQ0k6Hd-15">
          <mxGeometry relative="1" as="geometry" />
        </mxCell>
        <mxCell id="NMXMBQw7t5BSDtQ0k6Hd-31" value="" style="rounded=0;whiteSpace=wrap;html=1;fillColor=none;strokeWidth=3;" vertex="1" parent="1">
          <mxGeometry x="80" y="10" width="740" height="510" as="geometry" />
        </mxCell>
        <mxCell id="NMXMBQw7t5BSDtQ0k6Hd-33" value="Topping" style="swimlane;fontStyle=0;childLayout=stackLayout;horizontal=1;startSize=26;horizontalStack=0;resizeParent=1;resizeParentMax=0;resizeLast=0;collapsible=1;marginBottom=0;align=center;fontSize=14;" vertex="1" parent="1">
          <mxGeometry x="570" y="876" width="160" height="116" as="geometry" />
        </mxCell>
        <mxCell id="NMXMBQw7t5BSDtQ0k6Hd-34" value="TID" style="text;strokeColor=none;fillColor=none;spacingLeft=4;spacingRight=4;overflow=hidden;rotatable=0;points=[[0,0.5],[1,0.5]];portConstraint=eastwest;fontSize=12;" vertex="1" parent="NMXMBQw7t5BSDtQ0k6Hd-33">
          <mxGeometry y="26" width="160" height="30" as="geometry" />
        </mxCell>
        <mxCell id="NMXMBQw7t5BSDtQ0k6Hd-35" value="title" style="text;strokeColor=none;fillColor=none;spacingLeft=4;spacingRight=4;overflow=hidden;rotatable=0;points=[[0,0.5],[1,0.5]];portConstraint=eastwest;fontSize=12;" vertex="1" parent="NMXMBQw7t5BSDtQ0k6Hd-33">
          <mxGeometry y="56" width="160" height="30" as="geometry" />
        </mxCell>
        <mxCell id="NMXMBQw7t5BSDtQ0k6Hd-36" value="nurishment" style="text;strokeColor=none;fillColor=none;spacingLeft=4;spacingRight=4;overflow=hidden;rotatable=0;points=[[0,0.5],[1,0.5]];portConstraint=eastwest;fontSize=12;" vertex="1" parent="NMXMBQw7t5BSDtQ0k6Hd-33">
          <mxGeometry y="86" width="160" height="30" as="geometry" />
        </mxCell>
        <mxCell id="NMXMBQw7t5BSDtQ0k6Hd-37" value="Pizza" style="swimlane;fontStyle=0;childLayout=stackLayout;horizontal=1;startSize=26;horizontalStack=0;resizeParent=1;resizeParentMax=0;resizeLast=0;collapsible=1;marginBottom=0;align=center;fontSize=14;" vertex="1" parent="1">
          <mxGeometry x="90" y="876" width="160" height="146" as="geometry" />
        </mxCell>
        <mxCell id="NMXMBQw7t5BSDtQ0k6Hd-38" value="PID" style="text;strokeColor=none;fillColor=none;spacingLeft=4;spacingRight=4;overflow=hidden;rotatable=0;points=[[0,0.5],[1,0.5]];portConstraint=eastwest;fontSize=12;" vertex="1" parent="NMXMBQw7t5BSDtQ0k6Hd-37">
          <mxGeometry y="26" width="160" height="30" as="geometry" />
        </mxCell>
        <mxCell id="NMXMBQw7t5BSDtQ0k6Hd-39" value="title" style="text;strokeColor=none;fillColor=none;spacingLeft=4;spacingRight=4;overflow=hidden;rotatable=0;points=[[0,0.5],[1,0.5]];portConstraint=eastwest;fontSize=12;" vertex="1" parent="NMXMBQw7t5BSDtQ0k6Hd-37">
          <mxGeometry y="56" width="160" height="30" as="geometry" />
        </mxCell>
        <mxCell id="NMXMBQw7t5BSDtQ0k6Hd-40" value="nurishment" style="text;strokeColor=none;fillColor=none;spacingLeft=4;spacingRight=4;overflow=hidden;rotatable=0;points=[[0,0.5],[1,0.5]];portConstraint=eastwest;fontSize=12;" vertex="1" parent="NMXMBQw7t5BSDtQ0k6Hd-37">
          <mxGeometry y="86" width="160" height="30" as="geometry" />
        </mxCell>
        <mxCell id="NMXMBQw7t5BSDtQ0k6Hd-41" value="price" style="text;strokeColor=none;fillColor=none;spacingLeft=4;spacingRight=4;overflow=hidden;rotatable=0;points=[[0,0.5],[1,0.5]];portConstraint=eastwest;fontSize=12;" vertex="1" parent="NMXMBQw7t5BSDtQ0k6Hd-37">
          <mxGeometry y="116" width="160" height="30" as="geometry" />
        </mxCell>
        <mxCell id="NMXMBQw7t5BSDtQ0k6Hd-42" value="ToppingOnPizza" style="swimlane;fontStyle=0;childLayout=stackLayout;horizontal=1;startSize=26;horizontalStack=0;resizeParent=1;resizeParentMax=0;resizeLast=0;collapsible=1;marginBottom=0;align=center;fontSize=14;" vertex="1" parent="1">
          <mxGeometry x="330" y="790" width="160" height="86" as="geometry" />
        </mxCell>
        <mxCell id="NMXMBQw7t5BSDtQ0k6Hd-43" value="PID" style="text;strokeColor=none;fillColor=none;spacingLeft=4;spacingRight=4;overflow=hidden;rotatable=0;points=[[0,0.5],[1,0.5]];portConstraint=eastwest;fontSize=12;" vertex="1" parent="NMXMBQw7t5BSDtQ0k6Hd-42">
          <mxGeometry y="26" width="160" height="30" as="geometry" />
        </mxCell>
        <mxCell id="NMXMBQw7t5BSDtQ0k6Hd-44" value="TID" style="text;strokeColor=none;fillColor=none;spacingLeft=4;spacingRight=4;overflow=hidden;rotatable=0;points=[[0,0.5],[1,0.5]];portConstraint=eastwest;fontSize=12;" vertex="1" parent="NMXMBQw7t5BSDtQ0k6Hd-42">
          <mxGeometry y="56" width="160" height="30" as="geometry" />
        </mxCell>
        <mxCell id="NMXMBQw7t5BSDtQ0k6Hd-45" value="sauce" style="swimlane;fontStyle=0;childLayout=stackLayout;horizontal=1;startSize=26;horizontalStack=0;resizeParent=1;resizeParentMax=0;resizeLast=0;collapsible=1;marginBottom=0;align=center;fontSize=14;" vertex="1" parent="1">
          <mxGeometry x="570" y="1036" width="160" height="116" as="geometry" />
        </mxCell>
        <mxCell id="NMXMBQw7t5BSDtQ0k6Hd-46" value="SID" style="text;strokeColor=none;fillColor=none;spacingLeft=4;spacingRight=4;overflow=hidden;rotatable=0;points=[[0,0.5],[1,0.5]];portConstraint=eastwest;fontSize=12;" vertex="1" parent="NMXMBQw7t5BSDtQ0k6Hd-45">
          <mxGeometry y="26" width="160" height="30" as="geometry" />
        </mxCell>
        <mxCell id="NMXMBQw7t5BSDtQ0k6Hd-47" value="title" style="text;strokeColor=none;fillColor=none;spacingLeft=4;spacingRight=4;overflow=hidden;rotatable=0;points=[[0,0.5],[1,0.5]];portConstraint=eastwest;fontSize=12;" vertex="1" parent="NMXMBQw7t5BSDtQ0k6Hd-45">
          <mxGeometry y="56" width="160" height="30" as="geometry" />
        </mxCell>
        <mxCell id="NMXMBQw7t5BSDtQ0k6Hd-48" value="nurishment" style="text;strokeColor=none;fillColor=none;spacingLeft=4;spacingRight=4;overflow=hidden;rotatable=0;points=[[0,0.5],[1,0.5]];portConstraint=eastwest;fontSize=12;" vertex="1" parent="NMXMBQw7t5BSDtQ0k6Hd-45">
          <mxGeometry y="86" width="160" height="30" as="geometry" />
        </mxCell>
        <mxCell id="NMXMBQw7t5BSDtQ0k6Hd-49" value="SauceOnPizza" style="swimlane;fontStyle=0;childLayout=stackLayout;horizontal=1;startSize=26;horizontalStack=0;resizeParent=1;resizeParentMax=0;resizeLast=0;collapsible=1;marginBottom=0;align=center;fontSize=14;" vertex="1" parent="1">
          <mxGeometry x="330" y="1152" width="160" height="86" as="geometry" />
        </mxCell>
        <mxCell id="NMXMBQw7t5BSDtQ0k6Hd-50" value="SID" style="text;strokeColor=none;fillColor=none;spacingLeft=4;spacingRight=4;overflow=hidden;rotatable=0;points=[[0,0.5],[1,0.5]];portConstraint=eastwest;fontSize=12;" vertex="1" parent="NMXMBQw7t5BSDtQ0k6Hd-49">
          <mxGeometry y="26" width="160" height="30" as="geometry" />
        </mxCell>
        <mxCell id="NMXMBQw7t5BSDtQ0k6Hd-51" value="PID" style="text;strokeColor=none;fillColor=none;spacingLeft=4;spacingRight=4;overflow=hidden;rotatable=0;points=[[0,0.5],[1,0.5]];portConstraint=eastwest;fontSize=12;" vertex="1" parent="NMXMBQw7t5BSDtQ0k6Hd-49">
          <mxGeometry y="56" width="160" height="30" as="geometry" />
        </mxCell>
        <mxCell id="NMXMBQw7t5BSDtQ0k6Hd-52" style="edgeStyle=orthogonalEdgeStyle;rounded=0;orthogonalLoop=1;jettySize=auto;html=1;" edge="1" parent="1" source="NMXMBQw7t5BSDtQ0k6Hd-46" target="NMXMBQw7t5BSDtQ0k6Hd-50">
          <mxGeometry relative="1" as="geometry" />
        </mxCell>
        <mxCell id="NMXMBQw7t5BSDtQ0k6Hd-53" style="edgeStyle=orthogonalEdgeStyle;rounded=0;orthogonalLoop=1;jettySize=auto;html=1;" edge="1" parent="1" source="NMXMBQw7t5BSDtQ0k6Hd-38" target="NMXMBQw7t5BSDtQ0k6Hd-51">
          <mxGeometry relative="1" as="geometry" />
        </mxCell>
        <mxCell id="NMXMBQw7t5BSDtQ0k6Hd-54" style="edgeStyle=orthogonalEdgeStyle;rounded=0;orthogonalLoop=1;jettySize=auto;html=1;entryX=0;entryY=0.5;entryDx=0;entryDy=0;" edge="1" parent="1" source="NMXMBQw7t5BSDtQ0k6Hd-38" target="NMXMBQw7t5BSDtQ0k6Hd-43">
          <mxGeometry relative="1" as="geometry" />
        </mxCell>
        <mxCell id="NMXMBQw7t5BSDtQ0k6Hd-55" style="edgeStyle=orthogonalEdgeStyle;rounded=0;orthogonalLoop=1;jettySize=auto;html=1;entryX=1;entryY=0.5;entryDx=0;entryDy=0;" edge="1" parent="1" source="NMXMBQw7t5BSDtQ0k6Hd-34" target="NMXMBQw7t5BSDtQ0k6Hd-44">
          <mxGeometry relative="1" as="geometry" />
        </mxCell>
      </root>
    </mxGraphModel>
  </diagram>
</mxfile>
